<?xml version="1.0" encoding="UTF-8" standalone="no"?>
<svg width="35px" height="33px" viewBox="0 0 35 33" version="1.1" xmlns="http://www.w3.org/2000/svg" xmlns:xlink="http://www.w3.org/1999/xlink">
    <!-- Generator: Sketch 3.8.3 (29802) - http://www.bohemiancoding.com/sketch -->
    <title>Group</title>
    <desc>Created with Sketch.</desc>
    <defs></defs>
    <g id="Карточка" stroke="none" stroke-width="1" fill="none" fill-rule="evenodd">
        <g transform="translate(-205.000000, -2285.000000)" id="Group-10" fill="#EB8A1C">
            <g transform="translate(-290.000000, 2084.000000)">
                <g id="Group-16" transform="translate(495.000000, 66.757359)">
                    <g id="Group-23" transform="translate(0.000000, 135.000000)">
                        <g id="noun_445607_cc">
                            <g id="Group">
                                <path d="M32.0833333,0 L2.91666667,0 C1.3125,0 0,1.30909091 0,2.90909091 L0,29.0909091 C0,30.6981818 1.30520833,32 2.91666667,32 L32.0833333,32 C33.6947917,32 35,30.6981818 35,29.0909091 L35,2.90909091 C35,1.30909091 33.6875,0 32.0833333,0 L32.0833333,0 Z M14.5833333,2.90909091 L20.4166667,2.90909091 L20.4166667,5.81818182 L14.5833333,5.81818182 L14.5833333,2.90909091 L14.5833333,2.90909091 Z M10.2083333,29.0909091 L4.375,29.0909091 L4.375,26.1818182 L10.2083333,26.1818182 L10.2083333,29.0909091 L10.2083333,29.0909091 Z M10.2083333,5.81818182 L4.375,5.81818182 L4.375,2.90909091 L10.2083333,2.90909091 L10.2083333,5.81818182 L10.2083333,5.81818182 Z M20.4166667,29.0909091 L14.5833333,29.0909091 L14.5833333,26.1818182 L20.4166667,26.1818182 L20.4166667,29.0909091 L20.4166667,29.0909091 Z M14.5833333,21.8181818 L14.5833333,10.1818182 L23.3333333,16 L14.5833333,21.8181818 L14.5833333,21.8181818 Z M30.625,29.0909091 L24.7916667,29.0909091 L24.7916667,26.1818182 L30.625,26.1818182 L30.625,29.0909091 L30.625,29.0909091 Z M30.625,5.81818182 L24.7916667,5.81818182 L24.7916667,2.90909091 L30.625,2.90909091 L30.625,5.81818182 L30.625,5.81818182 Z" id="Shape"></path>
                            </g>
                        </g>
                    </g>
                </g>
            </g>
        </g>
    </g>
</svg>